<svg width="375" height="667" viewBox="0 0 375 667" fill="none" xmlns="http://www.w3.org/2000/svg">
<g clip-path="url(#clip0_0_1624)">
<path fill-rule="evenodd" clip-rule="evenodd" d="M22.9505 100.457C22.6899 86.9353 22.8475 73.3747 22.1524 59.8676C22.1089 59.0412 20.7783 59.1008 20.7137 59.904C19.6387 73.2484 19.6801 86.709 19.6154 100.09C19.5518 113.659 19.3235 127.27 20.5278 140.797C20.6783 142.487 23.4668 142.425 23.5194 140.722C23.9386 127.3 23.2082 113.877 22.9505 100.457Z" fill="white"/>
<path fill-rule="evenodd" clip-rule="evenodd" d="M48.9201 146.983C51.1388 137.925 54.3648 129.382 58.1252 120.863C60.1873 116.193 62.4181 111.591 64.8106 107.081C66.8999 103.141 68.961 98.6204 72.0304 95.359C72.3931 94.9731 73.0427 95.3722 72.9043 95.8672C71.8283 99.7125 69.5571 103.28 67.8688 106.897C65.7603 111.416 63.7275 115.968 61.8311 120.579C58.1606 129.504 55.0821 138.701 51.8329 147.786C51.1833 149.602 48.4503 148.896 48.9201 146.983Z" fill="white"/>
<path fill-rule="evenodd" clip-rule="evenodd" d="M94.1343 149.823C100.155 142.035 106.185 134.278 112.433 126.671C115.549 122.878 118.664 119.084 121.78 115.29C123.49 113.209 125.66 108.649 128.736 108.813C129.103 108.832 129.309 109.081 129.351 109.428C129.37 109.582 129.39 109.736 129.408 109.889C129.433 110.091 129.28 110.257 129.135 110.365C128.993 110.472 128.849 110.577 128.709 110.684C128.541 110.809 128.262 110.752 128.127 110.609C128.05 110.528 127.974 110.448 127.897 110.368C127.877 110.347 127.869 110.323 127.854 110.3C123.676 115.207 98.0059 147.892 95.3669 151.056C94.6364 151.931 93.4644 150.69 94.1343 149.823Z" fill="white"/>
<path fill-rule="evenodd" clip-rule="evenodd" d="M134.999 167.332C143.118 159.96 152.333 153.259 162.272 148.56C163.531 147.965 164.488 149.612 163.357 150.416C154.532 156.693 145.63 162.758 137.053 169.386C135.618 170.496 133.577 168.624 134.999 167.332Z" fill="white"/>
<path fill-rule="evenodd" clip-rule="evenodd" d="M140.645 208.543C163.419 200.599 186.014 192.015 208.219 182.592C209.614 182.001 210.83 184.046 209.42 184.65C187.024 194.219 164.317 202.839 141.124 210.28C140.009 210.636 139.56 208.922 140.645 208.543Z" fill="white"/>
<path fill-rule="evenodd" clip-rule="evenodd" d="M186.109 233.457C193.616 232.439 201.184 231.922 208.759 231.793C209.85 231.774 210.138 233.555 209.022 233.731C201.555 234.925 194.021 235.773 186.464 236.081C184.98 236.141 184.605 233.661 186.109 233.457Z" fill="white"/>
<path fill-rule="evenodd" clip-rule="evenodd" d="M16.5935 506.7C16.8532 520.221 16.6966 533.782 17.3917 547.289C17.4341 548.116 18.7647 548.056 18.8304 547.253C19.9044 533.908 19.863 520.447 19.9276 507.066C19.9923 493.497 20.2196 479.887 19.0153 466.36C18.8658 464.669 16.0763 464.732 16.0237 466.435C15.6044 479.857 16.3349 493.279 16.5935 506.7Z" fill="white"/>
<path fill-rule="evenodd" clip-rule="evenodd" d="M48.9201 460.174C51.1388 469.23 54.3648 477.774 58.1252 486.293C60.1873 490.962 62.4181 495.565 64.8106 500.075C66.8999 504.015 68.961 508.535 72.0304 511.797C72.3931 512.183 73.0427 511.784 72.9043 511.288C71.8283 507.443 69.5571 503.876 67.8688 500.259C65.7603 495.74 63.7275 491.188 61.8311 486.577C58.1606 477.652 55.0821 468.455 51.8329 459.37C51.1833 457.555 48.4503 458.259 48.9201 460.174Z" fill="white"/>
<path fill-rule="evenodd" clip-rule="evenodd" d="M94.1343 457.332C100.155 465.121 106.185 472.878 112.433 480.485C115.549 484.279 118.664 488.072 121.78 491.865C123.49 493.946 125.66 498.506 128.736 498.343C129.103 498.323 129.309 498.075 129.351 497.727C129.37 497.574 129.39 497.421 129.408 497.266C129.433 497.064 129.28 496.899 129.135 496.791C128.993 496.684 128.849 496.578 128.709 496.472C128.541 496.347 128.262 496.405 128.127 496.547C128.05 496.628 127.974 496.708 127.897 496.789C127.877 496.81 127.869 496.834 127.854 496.856C123.676 491.948 98.0059 459.265 95.3669 456.1C94.6364 455.225 93.4644 456.465 94.1343 457.332Z" fill="white"/>
<path fill-rule="evenodd" clip-rule="evenodd" d="M130.585 437.732C138.704 445.106 147.919 451.806 157.858 456.504C159.117 457.099 160.074 455.452 158.943 454.648C150.118 448.372 141.216 442.307 132.638 435.679C131.202 434.569 129.163 436.441 130.585 437.732Z" fill="white"/>
<path fill-rule="evenodd" clip-rule="evenodd" d="M140.645 398.614C163.419 406.558 186.014 415.141 208.219 424.564C209.614 425.156 210.83 423.109 209.42 422.507C187.024 412.936 164.317 404.318 141.124 396.877C140.009 396.52 139.56 398.235 140.645 398.614Z" fill="white"/>
<path fill-rule="evenodd" clip-rule="evenodd" d="M186.109 373.699C193.616 374.716 201.184 375.235 208.759 375.363C209.85 375.382 210.138 373.602 209.022 373.424C201.555 372.232 194.021 371.383 186.464 371.075C184.98 371.014 184.605 373.496 186.109 373.699Z" fill="white"/>
<path fill-rule="evenodd" clip-rule="evenodd" d="M43.4718 110.245C41.0389 110.245 41.0389 114.018 43.4718 114.018C45.9057 114.018 45.9057 110.245 43.4718 110.245Z" fill="#F58B35"/>
<path fill-rule="evenodd" clip-rule="evenodd" d="M81.4845 138.335C79.9225 138.335 78.6192 139.638 78.6192 141.2C78.6192 142.762 79.9225 144.066 81.4845 144.066C83.0465 144.066 84.3498 142.762 84.3498 141.2C84.3498 139.638 83.0465 138.335 81.4845 138.335Z" fill="#F58B35"/>
<path fill-rule="evenodd" clip-rule="evenodd" d="M110.553 104.305C107.67 104.305 107.67 108.778 110.553 108.778C113.437 108.778 113.437 104.305 110.553 104.305Z" fill="#F58B35"/>
<path fill-rule="evenodd" clip-rule="evenodd" d="M157.509 123.417C154.76 123.417 154.76 127.679 157.509 127.679C160.258 127.679 160.258 123.417 157.509 123.417Z" fill="#F58B35"/>
<path fill-rule="evenodd" clip-rule="evenodd" d="M160.419 181.891C159.298 180.77 157.086 180.579 155.996 181.891C155.954 181.943 155.911 181.994 155.869 182.044C154.788 183.346 154.589 185.161 155.869 186.442C157.15 187.722 158.964 187.524 160.267 186.442C160.317 186.399 160.368 186.357 160.419 186.316C161.732 185.224 161.541 183.014 160.419 181.891Z" fill="#F58B35"/>
<path fill-rule="evenodd" clip-rule="evenodd" d="M210.056 202.796C208.357 202.796 207.509 204.585 208.215 206.002C208.423 206.42 208.65 206.783 208.969 207.131C209.516 207.73 210.594 207.73 211.142 207.131C211.46 206.783 211.687 206.42 211.894 206.002C212.602 204.585 211.753 202.796 210.056 202.796Z" fill="#F58B35"/>
<path fill-rule="evenodd" clip-rule="evenodd" d="M159.744 236.685C157.447 236.685 157.447 240.248 159.744 240.248C162.043 240.248 162.043 236.685 159.744 236.685Z" fill="#F58B35"/>
<path fill-rule="evenodd" clip-rule="evenodd" d="M237.435 273.497C236.678 272.586 235.49 272.136 234.299 272.464C233.011 272.818 232.094 274.024 232.094 275.361C232.094 276.697 233.011 277.903 234.299 278.259C235.49 278.586 236.678 278.136 237.435 277.224C238.519 276.252 238.519 274.47 237.435 273.497Z" fill="#F58B35"/>
<path fill-rule="evenodd" clip-rule="evenodd" d="M162.135 377.212C161.567 376.334 160.353 375.887 159.411 376.498C159.246 376.604 159.077 376.685 158.899 376.77C157.803 377.29 157.803 379.144 158.899 379.665C159.077 379.75 159.246 379.829 159.411 379.936C160.353 380.547 161.567 380.099 162.135 379.222C162.556 378.572 162.556 377.862 162.135 377.212Z" fill="#F58B35"/>
<path fill-rule="evenodd" clip-rule="evenodd" d="M194.403 436.109C189.762 436.109 189.762 443.306 194.403 443.306C199.045 443.306 199.045 436.109 194.403 436.109Z" fill="#F58B35"/>
<path fill-rule="evenodd" clip-rule="evenodd" d="M142.974 427.898C141.825 427.898 141.007 429.013 141.29 430.109C141.38 430.458 141.47 430.805 141.56 431.154C141.922 432.556 144.027 432.556 144.39 431.154C144.479 430.805 144.57 430.458 144.66 430.109C144.943 429.013 144.124 427.898 142.974 427.898Z" fill="#F58B35"/>
<path fill-rule="evenodd" clip-rule="evenodd" d="M131.795 464.234C129.929 464.234 128.371 465.792 128.371 467.658C128.371 469.524 129.929 471.081 131.795 471.081C133.662 471.081 135.219 469.524 135.219 467.658C135.219 465.792 133.662 464.234 131.795 464.234Z" fill="#F58B35"/>
<path fill-rule="evenodd" clip-rule="evenodd" d="M80.3666 467.098C78.2035 467.098 78.2035 470.452 80.3666 470.452C82.5297 470.452 82.5297 467.098 80.3666 467.098Z" fill="#F58B35"/>
<path fill-rule="evenodd" clip-rule="evenodd" d="M56.8883 525.2C54.7363 525.2 52.9409 526.995 52.9409 529.148C52.9409 531.299 54.7363 533.095 56.8883 533.095C59.0403 533.095 60.8366 531.299 60.8366 529.148C60.8366 526.995 59.0403 525.2 56.8883 525.2Z" fill="#F58B35"/>
<path fill-rule="evenodd" clip-rule="evenodd" d="M37.8825 486.175C35.8093 486.175 35.8093 489.389 37.8825 489.389C39.9557 489.389 39.9557 486.175 37.8825 486.175Z" fill="#F58B35"/>
<path fill-rule="evenodd" clip-rule="evenodd" d="M5.08343 85.1506C4.81569 84.9697 4.54997 84.7899 4.28224 84.608C2.93951 83.6967 1.12799 84.9101 1.12799 86.4175C1.12799 87.9249 2.93951 89.1383 4.28224 88.228C4.54997 88.0472 4.81569 87.8663 5.08343 87.6855C6.02606 87.0459 6.02606 85.7901 5.08343 85.1506Z" fill="#F58B35"/>
<path fill-rule="evenodd" clip-rule="evenodd" d="M2.10665 124.99C-1.4982 124.99 -1.4982 130.579 2.10665 130.579C5.71049 130.579 5.71049 124.99 2.10665 124.99Z" fill="#F58B35"/>
<path fill-rule="evenodd" clip-rule="evenodd" d="M306.697 302.975C310.305 307.896 406.393 411.234 413.22 411.58C420.046 411.926 438.727 392.576 440.318 389.116C441.908 385.656 334.741 280.48 332.435 279.42C330.127 278.358 304.122 299.461 306.697 302.975V302.975Z" stroke="#A7A7A7" stroke-width="2" stroke-linecap="round" stroke-linejoin="round"/>
<path d="M316.219 312.258C318.009 310.061 319.933 307.972 321.975 306.007" stroke="#A7A7A7" stroke-width="2" stroke-linecap="round" stroke-linejoin="round"/>
<path d="M330.765 328.728C332.554 326.531 334.479 324.443 336.52 322.478" stroke="#A7A7A7" stroke-width="2" stroke-linecap="round" stroke-linejoin="round"/>
<path d="M349.85 347.985C351.639 345.787 353.564 343.699 355.606 341.734" stroke="#A7A7A7" stroke-width="2" stroke-linecap="round" stroke-linejoin="round"/>
<path d="M366.437 366.092C368.226 363.895 370.15 361.807 372.191 359.841" stroke="#A7A7A7" stroke-width="2" stroke-linecap="round" stroke-linejoin="round"/>
<path d="M323.225 319.556C325.015 317.358 326.938 315.27 328.98 313.305" stroke="#A7A7A7" stroke-width="2" stroke-linecap="round" stroke-linejoin="round"/>
<path d="M339.82 337.899C341.609 335.702 343.533 333.614 345.574 331.648" stroke="#A7A7A7" stroke-width="2" stroke-linecap="round" stroke-linejoin="round"/>
<path d="M357.707 356.722C359.497 354.524 361.421 352.436 363.462 350.471" stroke="#A7A7A7" stroke-width="2" stroke-linecap="round" stroke-linejoin="round"/>
<path d="M374.315 374.024C376.104 371.826 378.028 369.738 380.07 367.773" stroke="#A7A7A7" stroke-width="2" stroke-linecap="round" stroke-linejoin="round"/>
<path d="M347.219 315.258C366.001 333.908 384.668 352.673 403.222 371.551" stroke="#A7A7A7" stroke-width="2" stroke-linecap="round" stroke-linejoin="round"/>
<path fill-rule="evenodd" clip-rule="evenodd" d="M265.824 564.589C271.583 560.471 281.966 577.334 281.533 585.002C281.098 592.668 176.655 660.009 173.781 662.687C173.781 662.687 160.29 655.919 158.354 643.592C158.354 643.592 254.171 572.924 265.824 564.589V564.589Z" stroke="#A7A7A7" stroke-width="2" stroke-linecap="round" stroke-linejoin="round"/>
<path d="M243.057 582.176C243.057 582.176 251.048 587.361 258.246 603.387" stroke="#A7A7A7" stroke-width="2" stroke-linecap="round" stroke-linejoin="round"/>
<path d="M275.768 567.637C275.768 567.637 281.851 557.39 288.003 563.654C294.157 569.919 280.837 576.886 280.837 576.886" stroke="#A7A7A7" stroke-width="2" stroke-linecap="round" stroke-linejoin="round"/>
<path d="M158.354 643.592C158.354 643.592 145.16 660.862 144.426 665.495C144.426 665.495 146.843 668.766 148.134 671.591C148.134 671.591 168.015 666.324 173.782 662.686" stroke="#A7A7A7" stroke-width="2" stroke-linecap="round" stroke-linejoin="round"/>
<path d="M144.426 665.494C144.426 665.494 136.416 674.774 137.544 675.222C138.674 675.67 148.134 671.591 148.134 671.591" stroke="#A7A7A7" stroke-width="2" stroke-linecap="round" stroke-linejoin="round"/>
<path d="M197.951 614.503C197.951 614.503 201.016 627.279 212.671 635.125" stroke="#A7A7A7" stroke-width="2" stroke-linecap="round" stroke-linejoin="round"/>
<path fill-rule="evenodd" clip-rule="evenodd" d="M59.7298 56.3011C63.0063 57.9298 84.402 44.842 85.8579 42.6455C87.3148 40.4501 144.787 -49.0145 145.246 -51.8353C145.703 -54.6561 136.485 -69.5858 123.295 -66.8023C123.295 -66.8023 61.7727 22.9896 60.8735 27.824C59.9733 32.6584 55.9249 54.4108 59.7298 56.3011V56.3011Z" stroke="#A7A7A7" stroke-width="2" stroke-linecap="round" stroke-linejoin="round"/>
<path d="M71.5469 51.2692C71.5469 51.2692 68.4593 43.53 58.9592 43.5533" stroke="#A7A7A7" stroke-width="2" stroke-linecap="round" stroke-linejoin="round"/>
<path d="M85.8583 42.6457C85.8583 42.6457 76.4491 27.1068 60.8739 27.8241" stroke="#A7A7A7" stroke-width="2" stroke-linecap="round" stroke-linejoin="round"/>
<path d="M81.147 35.2804L140.35 -60.2158" stroke="#A7A7A7" stroke-width="2" stroke-linecap="round" stroke-linejoin="round"/>
<path d="M130.347 -65.6587L70.7622 28.617" stroke="#A7A7A7" stroke-width="2" stroke-linecap="round" stroke-linejoin="round"/>
<path fill-rule="evenodd" clip-rule="evenodd" d="M271.393 100.654C269.781 105.134 374.45 203.88 378.478 202.333C382.507 200.787 334.705 44.709 332.747 42.2115C330.788 39.715 272.686 97.0582 271.393 100.654V100.654Z" stroke="#A7A7A7" stroke-width="2" stroke-linecap="round" stroke-linejoin="round"/>
<path fill-rule="evenodd" clip-rule="evenodd" d="M309.635 101.39C308.345 99.8209 323.39 89.3114 325.805 87.6596C328.22 86.0077 341.028 128.872 340.571 133.021C340.116 137.169 311.369 103.498 309.635 101.39V101.39Z" stroke="#A7A7A7" stroke-width="2" stroke-linecap="round" stroke-linejoin="round"/>
<path d="M275.839 106.119L281.284 101.338" stroke="#A7A7A7" stroke-width="2" stroke-linecap="round" stroke-linejoin="round"/>
<path d="M285.538 116.497L290.984 111.718" stroke="#A7A7A7" stroke-width="2" stroke-linecap="round" stroke-linejoin="round"/>
<path d="M294.164 125.165L299.609 120.384" stroke="#A7A7A7" stroke-width="2" stroke-linecap="round" stroke-linejoin="round"/>
<path d="M304.135 133.919L309.58 129.138" stroke="#A7A7A7" stroke-width="2" stroke-linecap="round" stroke-linejoin="round"/>
<path d="M313.747 143.398L319.192 138.617" stroke="#A7A7A7" stroke-width="2" stroke-linecap="round" stroke-linejoin="round"/>
<path d="M321.278 150.841L326.723 146.06" stroke="#A7A7A7" stroke-width="2" stroke-linecap="round" stroke-linejoin="round"/>
<path d="M329.881 158.571L335.326 153.79" stroke="#A7A7A7" stroke-width="2" stroke-linecap="round" stroke-linejoin="round"/>
<path d="M337.789 166.442L343.234 161.662" stroke="#A7A7A7" stroke-width="2" stroke-linecap="round" stroke-linejoin="round"/>
<path d="M347.577 174.655L353.022 169.875" stroke="#A7A7A7" stroke-width="2" stroke-linecap="round" stroke-linejoin="round"/>
<path d="M355.944 182.65L361.39 177.87" stroke="#A7A7A7" stroke-width="2" stroke-linecap="round" stroke-linejoin="round"/>
<path d="M365.161 190.545L370.605 185.764" stroke="#A7A7A7" stroke-width="2" stroke-linecap="round" stroke-linejoin="round"/>
<path fill-rule="evenodd" clip-rule="evenodd" d="M387.382 660.222C387.382 660.222 374.496 654.626 371.964 665.999C369.434 677.371 397.604 683.039 408.019 676.184C408.019 676.184 408.867 641.982 395.848 642.237C382.829 642.491 387.382 660.222 387.382 660.222V660.222Z" stroke="#A7A7A7" stroke-width="2" stroke-linecap="round" stroke-linejoin="round"/>
<path fill-rule="evenodd" clip-rule="evenodd" d="M60.977 567.961C56.5305 566.789 48.5843 577.374 48.5843 577.374C48.5843 577.374 34.8903 573.225 33.9164 578.501C33.1162 582.833 41.2423 587.759 39.0205 591.1C39.0205 591.1 29.7882 600.554 32.9838 604.964C36.1805 609.375 50.2281 601.192 50.2281 601.192C50.2281 601.192 53.0489 613.032 58.3764 610.871C63.7018 608.709 61.272 595.387 61.272 595.387C61.272 595.387 71.9815 593.851 72.5877 590.048C73.1949 586.245 61.6307 582.005 61.6307 582.005C61.6307 582.005 64.6819 568.939 60.977 567.961V567.961Z" stroke="#A7A7A7" stroke-width="2" stroke-linecap="round" stroke-linejoin="round"/>
<path d="M299.685 -12.8118C299.685 -12.8118 310.103 5.67724 301.027 20.9766" stroke="#A7A7A7" stroke-width="2" stroke-linecap="round" stroke-linejoin="round"/>
<path fill-rule="evenodd" clip-rule="evenodd" d="M335.096 504.166C329.286 493.537 336.636 466.001 346.45 467.143C356.263 468.285 348.402 483.918 348.402 483.918C348.402 483.918 357.644 473.128 362.034 481.63C366.423 490.132 357.829 497.851 357.829 497.851C357.829 497.851 367.764 489.481 368.719 501.62C369.675 513.759 345.134 522.528 335.096 504.166V504.166Z" stroke="#A7A7A7" stroke-width="2" stroke-linecap="round" stroke-linejoin="round"/>
<path d="M336.805 508.269C336.805 508.269 325.339 526.127 307.57 525.263" stroke="#A7A7A7" stroke-width="2" stroke-linecap="round" stroke-linejoin="round"/>
<path fill-rule="evenodd" clip-rule="evenodd" d="M442.515 632.2C441.802 632.486 441.103 632.711 440.413 632.889C439.732 629.191 439.809 625.336 440.553 621.73C442.005 614.675 447.974 607.144 455.5 609.204C460.586 616.543 448.447 629.818 442.515 632.2ZM456.591 609.378C455.512 608.509 454.304 607.699 453.073 606.902C443.692 600.827 436.82 614.539 435.785 621.679C435.2 625.72 435.728 629.695 437.099 633.357C427.772 633.549 420.929 624.169 416.227 616.818C413.446 612.467 410.943 607.392 406.738 604.214C405.488 603.268 404.187 602.385 402.879 601.519C402.771 601.444 402.664 601.369 402.556 601.293C402.577 601.31 402.594 601.327 402.614 601.344C402.199 601.071 401.786 600.792 401.369 600.522C390.486 593.49 378.041 604.536 370.803 611.597C371.005 611.399 374.799 614.828 375.055 614.577C382.65 607.169 393.455 598.02 404.354 602.932C411.785 610.242 415.188 621.057 423.477 627.888C427.605 631.289 432.401 634.276 437.598 635.57C437.766 635.613 437.929 635.627 438.097 635.663C440.059 639.66 443.044 643.179 446.703 645.835C452.732 650.214 458.815 653.242 466.389 654.005C477.651 655.138 488.706 649.85 497.63 643.508C497.187 643.824 493.88 640.172 493.377 640.529C480.834 649.442 458.192 657.893 445.744 644.124C443.625 641.78 442.136 639 441.193 636.029C450.114 636.144 456.878 628.205 459.97 620.085C461.779 615.337 459.984 612.271 457.033 609.752C457.104 609.784 457.176 609.801 457.247 609.833C457.028 609.682 456.809 609.53 456.591 609.378Z" fill="#F58B35"/>
<path fill-rule="evenodd" clip-rule="evenodd" d="M-3.62188 624.726C0.458838 618.781 13.3001 621.862 16.2856 628.051C14.9803 631.822 11.5795 634.177 7.30179 634.608C2.5977 635.083 -1.94271 632.431 -5.58191 629.268C-5.30609 627.792 -4.68474 626.274 -3.62188 624.726ZM6.6673 645.544C1.97029 643.391 -2.87929 639.708 -4.84437 635.214C0.257784 639.219 6.84714 641.506 12.51 638.231C15.7128 636.379 16.617 633.172 16.8443 629.845C16.8504 629.892 16.8635 629.937 16.8686 629.984V629.42C16.9423 627.974 16.906 626.515 16.8827 625.145C16.7484 617.323 4.28697 615.217 -1.35773 617.651C-5.40106 619.394 -6.21539 624.214 -6.33461 628.596C-7.29543 627.714 -8.18856 626.809 -8.99076 625.93C-12.7492 621.823 -15.7135 616.074 -14.1647 610.533C-12.5421 604.737 -7.87233 600.224 -2.46404 597.931C-1.80935 597.653 -3.05306 592.988 -2.46404 592.738C-16.3308 598.616 -18.4919 616.787 -11.0215 628.494C-9.80711 630.396 -8.16128 632.325 -6.2457 634.039C-5.62132 643.06 0.259804 647.798 8.2323 651.455C15.6077 654.84 24.4147 663.656 23.5398 672.658C23.3721 674.377 23.7055 676.142 23.5398 677.852C24.9179 663.685 20.2229 651.763 6.6673 645.544Z" fill="#F58B35"/>
<path fill-rule="evenodd" clip-rule="evenodd" d="M6.24859 -28.1463C7.87319 -32.3635 12.5692 -33.1939 16.9459 -31.7906C20.2962 -30.7166 23.1049 -27.4381 24.4901 -23.8383C18.0199 -20.7588 8.45009 -20.9073 6.24859 -28.1463ZM38.668 -71.2005C39.4854 -71.7319 37.9052 -75.8985 38.668 -76.3936C27.9979 -69.4637 28.7324 -55.0332 34.1993 -45.1714C36.5493 -40.931 37.2737 -38.5052 35.1682 -34.0638C33.3638 -30.2569 29.9883 -27.2967 26.5562 -25.0042C26.1773 -24.7506 25.7752 -24.5132 25.362 -24.2869C24.488 -30.563 21.4247 -36.2057 14.506 -37.6242C8.51374 -38.8528 6.35568 -34.6145 5.8687 -30.0043C5.82526 -30.3792 5.79394 -30.7651 5.78485 -31.1703C5.78282 -30.3953 5.77979 -29.6204 5.77777 -28.8455C5.75858 -28.4343 5.74645 -28.0241 5.74948 -27.6179C5.75049 -27.4543 5.76868 -27.3128 5.77373 -27.1542C5.77272 -26.8794 5.77171 -26.6066 5.77171 -26.3308C5.7808 -26.3934 5.79798 -26.447 5.80707 -26.5086C6.52036 -15.3697 16.8166 -14.9454 25.4044 -19.5495C25.4206 -19.0534 25.4145 -18.5614 25.3579 -18.0865C24.5729 -11.3587 20.6771 -5.14017 17.3147 0.56617C14.2898 5.69965 9.72209 11.7131 3.0509 8.69931C3.66619 8.97816 2.36893 13.5853 3.0509 13.8924C12.4864 18.154 18.1654 4.7166 21.5207 -1.74546C24.5325 -7.54475 25.6085 -13.3238 25.6338 -19.6808C31.5816 -22.9462 36.6463 -28.598 37.0131 -34.7307C37.3546 -40.4451 36.9929 -45.1623 34.1993 -50.3635C32.1271 -54.2239 30.0479 -57.3751 31.2906 -61.761C32.4211 -65.7487 35.2612 -68.9878 38.668 -71.2005Z" fill="#F58B35"/>
<path fill-rule="evenodd" clip-rule="evenodd" d="M75.383 651.68C73.3412 651.68 71.6378 653.385 71.6378 655.425C71.6378 657.467 73.3412 659.17 75.383 659.17C77.4249 659.17 79.1273 657.467 79.1273 655.425C79.1273 653.385 77.4249 651.68 75.383 651.68Z" fill="#F58B35"/>
<path fill-rule="evenodd" clip-rule="evenodd" d="M203.192 533.9C199.829 533.9 197.022 536.707 197.022 540.07C197.022 543.436 199.829 546.242 203.192 546.242C206.557 546.242 209.364 543.436 209.364 540.07C209.364 536.707 206.557 533.9 203.192 533.9Z" fill="#F58B35"/>
<path fill-rule="evenodd" clip-rule="evenodd" d="M228.997 667.914C228.851 667.384 228.576 666.914 228.315 666.438C226.926 663.899 222.965 663.899 221.575 666.438C221.315 666.914 221.04 667.384 220.894 667.914C220.551 669.159 220.868 670.194 221.394 671.315C221.991 672.593 223.599 673.353 224.946 673.353C226.292 673.353 227.9 672.593 228.498 671.315C229.023 670.194 229.341 669.159 228.997 667.914Z" fill="#F58B35"/>
<path fill-rule="evenodd" clip-rule="evenodd" d="M260.365 208.578C260.315 208.545 260.266 208.512 260.216 208.477C259.271 207.846 257.559 207.982 256.829 208.915C256.88 208.892 256.933 208.866 256.983 208.843C255.434 209.611 255.434 212.172 256.983 212.941C256.933 212.917 256.88 212.894 256.829 212.868C257.559 213.801 259.271 213.938 260.216 213.306C260.266 213.272 260.315 213.239 260.365 213.206C262.087 212.053 262.087 209.731 260.365 208.578Z" fill="#F58B35"/>
<path fill-rule="evenodd" clip-rule="evenodd" d="M362.84 262.676C359.37 262.676 359.37 268.055 362.84 268.055C366.31 268.055 366.31 262.676 362.84 262.676Z" fill="#F58B35"/>
<path fill-rule="evenodd" clip-rule="evenodd" d="M283.109 363.525C279.687 363.525 276.832 366.381 276.832 369.803C276.832 373.224 279.687 376.079 283.109 376.079C286.531 376.079 289.386 373.224 289.386 369.803C289.386 366.381 286.531 363.525 283.109 363.525Z" fill="#F58B35"/>
<path fill-rule="evenodd" clip-rule="evenodd" d="M376.513 19.4919C376.198 19.0242 375.818 18.62 375.44 18.2038C374.591 17.2652 373.019 17.342 372.158 18.2038C371.298 19.0646 371.221 20.6356 372.158 21.4853C372.576 21.8632 372.98 22.2421 373.448 22.5573C374.245 23.0958 375.513 22.8937 376.181 22.2259C376.849 21.5571 377.052 20.2891 376.513 19.4919Z" fill="#F58B35"/>
<path fill-rule="evenodd" clip-rule="evenodd" d="M184.497 60.5486C181.277 60.5486 178.59 63.235 178.59 66.456C178.59 69.6759 181.277 72.3634 184.497 72.3634C187.718 72.3634 190.405 69.6759 190.405 66.456C190.405 63.235 187.718 60.5486 184.497 60.5486Z" fill="#F58B35"/>
<path fill-rule="evenodd" clip-rule="evenodd" d="M33.8382 33.1326C31.7984 33.1326 30.004 35.2351 30.685 37.2709C30.7264 37.3982 30.7699 37.5255 30.8113 37.6518C31.2579 38.9864 32.3844 39.9553 33.8382 39.9553C35.2911 39.9553 36.4176 38.9864 36.8632 37.6518C36.9056 37.5255 36.948 37.3982 36.9905 37.2709C37.6714 35.2351 35.8771 33.1326 33.8382 33.1326Z" fill="#F58B35"/>
<path fill-rule="evenodd" clip-rule="evenodd" d="M132.772 570.781C131.877 570.257 130.738 570.257 129.845 570.781C128.875 571.349 128.543 572.233 128.407 573.286L128.142 575.325C128.052 576.019 128.598 576.772 129.162 577.102C130.01 577.599 130.942 577.383 131.654 576.779C132.222 576.299 132.792 575.817 133.359 575.338C134.808 574.112 134.285 571.667 132.772 570.781Z" fill="#F58B35"/>
<path fill-rule="evenodd" clip-rule="evenodd" d="M305.959 480.323C303.904 480.323 302.628 482.604 303.636 484.371C303.754 484.579 303.874 484.786 303.992 484.994C304.835 486.473 307.082 486.473 307.926 484.994C308.044 484.786 308.164 484.579 308.282 484.371C309.29 482.604 308.014 480.323 305.959 480.323Z" fill="#F58B35"/>
<path fill-rule="evenodd" clip-rule="evenodd" d="M115.187 59.0696C114.865 58.9848 114.542 58.8999 114.219 58.816C113.259 58.5634 112.283 59.2868 112.283 60.2911C112.283 61.2934 113.259 62.0178 114.219 61.7652C114.542 61.6803 114.865 61.5954 115.187 61.5106C116.397 61.1933 116.397 59.3869 115.187 59.0696Z" fill="#F58B35"/>
</g>
<defs>
<clipPath id="clip0_0_1624">
<rect width="1170" height="779" fill="white" transform="translate(-556 -83)"/>
</clipPath>
</defs>
</svg>
