<svg width="375" height="667" viewBox="0 0 375 667" fill="none" xmlns="http://www.w3.org/2000/svg">
<g clip-path="url(#clip0_0_1954)">
<path fill-rule="evenodd" clip-rule="evenodd" d="M371.543 423.044C371.277 422.589 370.809 422.201 370.448 421.821C369.767 421.102 368.565 421.135 367.879 421.821C367.193 422.507 367.159 423.708 367.879 424.389C368.26 424.75 368.648 425.219 369.101 425.484C369.806 425.898 370.747 425.883 371.344 425.285C371.941 424.689 371.956 423.748 371.543 423.044Z" fill="#F58B35"/>
<path fill-rule="evenodd" clip-rule="evenodd" d="M277.193 53.3383C271.837 56.2632 156.698 137.84 155.454 144.561C154.208 151.281 170.918 172.357 174.136 174.391C177.355 176.426 295.781 84.1099 297.137 81.9649C298.494 79.819 281.015 51.25 277.193 53.3383V53.3383Z" stroke="white" stroke-width="2" stroke-linecap="round" stroke-linejoin="round"/>
<path d="M266.732 61.5493C268.672 63.6144 270.489 65.7967 272.167 68.0811" stroke="white" stroke-width="2" stroke-linecap="round" stroke-linejoin="round"/>
<path d="M248.483 73.7876C250.423 75.8537 252.24 78.036 253.918 80.3204" stroke="white" stroke-width="2" stroke-linecap="round" stroke-linejoin="round"/>
<path d="M226.871 90.1582C228.812 92.2243 230.628 94.4066 232.307 96.691" stroke="white" stroke-width="2" stroke-linecap="round" stroke-linejoin="round"/>
<path d="M206.728 104.204C208.67 106.27 210.487 108.453 212.164 110.737" stroke="white" stroke-width="2" stroke-linecap="round" stroke-linejoin="round"/>
<path d="M186.737 119.597C188.679 121.662 190.494 123.844 192.173 126.129" stroke="white" stroke-width="2" stroke-linecap="round" stroke-linejoin="round"/>
<path d="M166.746 134.99C168.686 137.054 170.503 139.236 172.18 141.521" stroke="white" stroke-width="2" stroke-linecap="round" stroke-linejoin="round"/>
<path d="M258.572 67.5273C260.513 69.5925 262.329 71.7748 264.008 74.0601" stroke="white" stroke-width="2" stroke-linecap="round" stroke-linejoin="round"/>
<path d="M238.195 81.5498C240.136 83.6149 241.952 85.7982 243.63 88.0826" stroke="white" stroke-width="2" stroke-linecap="round" stroke-linejoin="round"/>
<path d="M217.172 96.7915C219.113 98.8566 220.93 101.039 222.608 103.323" stroke="white" stroke-width="2" stroke-linecap="round" stroke-linejoin="round"/>
<path d="M197.825 110.965C199.767 113.03 201.583 115.212 203.261 117.496" stroke="white" stroke-width="2" stroke-linecap="round" stroke-linejoin="round"/>
<path d="M176.977 127.316C178.918 129.382 180.735 131.564 182.412 133.849" stroke="white" stroke-width="2" stroke-linecap="round" stroke-linejoin="round"/>
<path d="M259.658 91.8799C238.688 108.029 217.62 124.052 196.453 139.944" stroke="white" stroke-width="2" stroke-linecap="round" stroke-linejoin="round"/>
<path fill-rule="evenodd" clip-rule="evenodd" d="M43.0346 220.092C39.4661 214.456 55.8819 205.582 63.0714 206.397C70.2609 207.211 128.077 309.045 130.444 311.889C130.444 311.889 123.361 324.223 111.661 325.391C111.661 325.391 50.2574 231.497 43.0346 220.092V220.092Z" stroke="white" stroke-width="2" stroke-linecap="round" stroke-linejoin="round"/>
<path d="M58.3721 242.443C58.3721 242.443 63.6743 235.201 79.1343 229.279" stroke="white" stroke-width="2" stroke-linecap="round" stroke-linejoin="round"/>
<path d="M46.4287 210.897C46.4287 210.897 37.1115 204.633 43.3321 199.174C49.5516 193.718 55.4004 206.621 55.4004 206.621" stroke="white" stroke-width="2" stroke-linecap="round" stroke-linejoin="round"/>
<path d="M111.661 325.391C111.661 325.391 127.209 338.72 131.528 339.658C131.528 339.658 134.735 337.556 137.46 336.491C137.46 336.491 133.561 317.508 130.444 311.89" stroke="white" stroke-width="2" stroke-linecap="round" stroke-linejoin="round"/>
<path d="M131.528 339.658C131.528 339.658 139.834 347.684 140.315 346.646C140.797 345.61 137.46 336.491 137.46 336.491" stroke="white" stroke-width="2" stroke-linecap="round" stroke-linejoin="round"/>
<path d="M86.3939 286.594C86.3939 286.594 98.5754 284.388 106.577 273.84" stroke="white" stroke-width="2" stroke-linecap="round" stroke-linejoin="round"/>
<path fill-rule="evenodd" clip-rule="evenodd" d="M74.7189 597.128C77.6054 599.379 101.182 590.825 103.047 588.964C104.914 587.102 179.09 510.912 180.101 508.239C181.113 505.566 175.06 489.097 161.58 489.191C161.58 489.191 83.3703 564.895 81.5245 569.452C79.6776 574.009 71.3687 594.515 74.7189 597.128V597.128Z" stroke="white" stroke-width="2" stroke-linecap="round" stroke-linejoin="round"/>
<path d="M87.3036 594.556C87.3036 594.556 85.8224 586.357 76.5092 584.482" stroke="white" stroke-width="2" stroke-linecap="round" stroke-linejoin="round"/>
<path d="M103.047 588.964C103.047 588.964 96.931 571.859 81.5245 569.453" stroke="white" stroke-width="2" stroke-linecap="round" stroke-linejoin="round"/>
<path d="M99.9012 580.807L176.977 499.051" stroke="white" stroke-width="2" stroke-linecap="round" stroke-linejoin="round"/>
<path d="M168.262 491.72L91.0558 572.203" stroke="white" stroke-width="2" stroke-linecap="round" stroke-linejoin="round"/>
<path fill-rule="evenodd" clip-rule="evenodd" d="M342.816 633.612C342.943 638.37 476.354 692.299 479.545 689.393C482.735 686.487 381.452 558.475 378.719 556.861C375.988 555.247 342.713 629.792 342.816 633.612V633.612Z" stroke="white" stroke-width="2" stroke-linecap="round" stroke-linejoin="round"/>
<path d="M348.946 637.085L352.279 630.652" stroke="white" stroke-width="2" stroke-linecap="round" stroke-linejoin="round"/>
<path d="M361.755 643.227L365.089 636.793" stroke="white" stroke-width="2" stroke-linecap="round" stroke-linejoin="round"/>
<path d="M372.941 648.164L376.275 641.73" stroke="white" stroke-width="2" stroke-linecap="round" stroke-linejoin="round"/>
<path fill-rule="evenodd" clip-rule="evenodd" d="M52.6712 0.235882C52.6712 0.235882 34.2661 -20.0727 52.0357 -25.1496C69.8064 -30.2265 62.1905 -4.84001 52.6712 0.235882V0.235882Z" stroke="white" stroke-width="2" stroke-linecap="round" stroke-linejoin="round"/>
<path fill-rule="evenodd" clip-rule="evenodd" d="M52.6712 0.236027C52.6712 0.236027 74.8833 -14.3602 79.9612 2.1405C85.0371 18.6412 57.7481 6.58291 52.6712 0.236027V0.236027Z" stroke="white" stroke-width="2" stroke-linecap="round" stroke-linejoin="round"/>
<path fill-rule="evenodd" clip-rule="evenodd" d="M52.6712 0.236084C52.6712 0.236084 37.4395 23.7181 52.0357 23.7181C66.633 23.7181 57.1126 6.58297 52.6712 0.236084V0.236084Z" stroke="white" stroke-width="2" stroke-linecap="round" stroke-linejoin="round"/>
<path fill-rule="evenodd" clip-rule="evenodd" d="M52.6712 0.236081C52.6712 0.236081 31.0936 -17.5336 30.4592 -4.20532C29.8247 9.12091 42.5164 11.0254 52.6712 0.236081V0.236081Z" stroke="white" stroke-width="2" stroke-linecap="round" stroke-linejoin="round"/>
<path fill-rule="evenodd" clip-rule="evenodd" d="M277.585 551.097C277.585 551.097 282.085 526.176 268.849 532.665C255.615 539.155 253.209 587.642 262.451 597.399C262.451 597.399 301.292 567.482 299.151 547.696C297.01 527.91 277.585 551.097 277.585 551.097V551.097Z" stroke="white" stroke-width="2" stroke-linecap="round" stroke-linejoin="round"/>
<path fill-rule="evenodd" clip-rule="evenodd" d="M272.158 229.875C267.559 229.875 262.578 242.138 262.578 242.138C262.578 242.138 248.277 241.619 248.681 246.968C249.013 251.361 258.125 254.051 256.829 257.848C256.829 257.848 250.315 269.345 254.53 272.794C258.746 276.244 270.242 264.748 270.242 264.748C270.242 264.748 275.989 275.478 280.588 272.028C285.187 268.58 279.439 256.317 279.439 256.317C279.439 256.317 289.401 252.102 289.018 248.269C288.636 244.436 276.373 243.288 276.373 243.288C276.373 243.288 275.989 229.875 272.158 229.875V229.875Z" stroke="white" stroke-width="2" stroke-linecap="round" stroke-linejoin="round"/>
<path d="M84.2647 683.625C84.2647 683.625 98.5376 688.404 104.232 668.828C109.925 649.251 87.5766 641.998 74.9717 652.655C62.3648 663.311 82.8058 680.438 90.5944 669.928C98.382 659.421 87.3775 653.918 83.6019 660.274" stroke="white" stroke-width="2" stroke-linecap="round" stroke-linejoin="round"/>
<path fill-rule="evenodd" clip-rule="evenodd" d="M208.11 420.835C197.975 414.202 191.476 386.451 200.669 382.832C209.86 379.213 210.298 396.706 210.298 396.706C210.298 396.706 213.362 382.832 221.241 388.261C229.121 393.69 225.18 404.548 225.18 404.548C225.18 404.548 229.996 392.484 236.562 402.738C243.128 412.993 225.619 432.297 208.11 420.835V420.835Z" stroke="white" stroke-width="2" stroke-linecap="round" stroke-linejoin="round"/>
<path d="M211.551 423.647C211.551 423.647 209.859 444.801 193.782 452.418" stroke="white" stroke-width="2" stroke-linecap="round" stroke-linejoin="round"/>
<path fill-rule="evenodd" clip-rule="evenodd" d="M205.483 18.8797C210.368 15.1941 216.539 17.0723 218.116 22.3613C216.693 26.8745 212.38 29.173 207.634 29.7933C204.659 30.1823 201.765 29.5276 199.017 28.3425C199.817 24.7225 202.757 20.9368 205.483 18.8797ZM227.583 48.4025C216.051 49.9403 203.218 45.1543 199.498 33.6134C201.317 34.2852 203.143 34.7631 204.939 34.9914C211.861 35.8725 217.929 31.522 218.487 24.8063C218.489 24.8659 218.499 24.9195 218.5 24.9781C218.5 24.8387 218.501 24.7002 218.501 24.5598C218.517 24.3183 218.543 24.0799 218.544 23.8324C218.545 23.3161 218.532 22.7897 218.512 22.2633C218.514 21.6905 218.516 21.1186 218.518 20.5458C218.497 20.7074 218.463 20.857 218.435 21.0136C218.007 15.7366 216.052 10.6799 209.268 11.8953C202.042 13.1896 198.776 21.74 198.618 28.1717C194.818 26.4532 191.309 23.7414 188.275 21.351C183.097 17.2703 178.558 12.5319 175.786 6.49009C172.471 -0.736786 176.432 -5.73993 181.091 -11.0229C182.941 -13.1194 184.09 -15.6846 184.529 -18.3387C184.53 -18.3155 184.535 -18.2933 184.537 -18.27V-18.3801C184.789 -19.935 184.791 -21.5162 184.542 -23.0559V-23.3691C184.537 -23.3095 184.525 -23.253 184.517 -23.1933C184.004 -26.2001 182.537 -29.029 180.043 -31.1083C174.604 -35.6436 166.424 -37.8148 159.737 -39.6304C152.051 -41.7177 144.061 -42.5078 136.118 -42.4431C136.065 -42.4431 136.092 -37.25 136.118 -37.25C145.99 -37.3299 155.609 -35.8679 165.018 -32.8834C171.195 -30.9264 181.405 -27.7853 183.961 -20.8969C182.845 -17.8386 180.454 -15.526 178.246 -12.9971C175.259 -9.57615 174.135 -5.62172 174.058 -1.16516C173.941 5.69496 174.982 11.5064 179.029 17.3218C183.393 23.5919 190.934 30.1833 198.713 33.2991C198.993 37.4152 199.909 41.2423 202.597 44.9169C208.158 52.5216 218.76 54.7717 227.583 53.5946C227.849 53.5603 227.394 48.4268 227.583 48.4025Z" fill="#F58B35"/>
<path fill-rule="evenodd" clip-rule="evenodd" d="M284.12 651.431C287.14 645.562 298.42 646.912 303.264 649.13C304.489 649.69 305.599 650.389 306.613 651.178H306.612C301.228 655.267 287.797 658.954 284.12 651.431ZM317.99 591.257C310.248 590.103 307.066 597.378 307.048 603.862C307.025 611.971 310.241 618.065 313.776 625.233C318.064 633.932 315.789 642.524 309.293 648.861C308.541 647.898 307.677 646.972 306.657 646.097C303.243 643.169 298.646 641.933 294.24 641.888C290.935 641.854 283.713 643.691 283.446 647.931C283.42 648.355 283.398 648.771 283.383 649.183C283.38 649.168 283.375 649.155 283.373 649.14V649.58C283.351 650.288 283.348 650.979 283.376 651.644C283.377 652.509 283.378 653.375 283.38 654.241C283.401 653.89 283.449 653.559 283.51 653.239C284.027 657.329 286.038 660.283 291.921 660.876C298.676 661.555 304.869 658.572 309.383 653.884C312.851 658.207 314.026 664.101 312.265 669.623C306.561 687.515 279.677 689.49 278.228 709.924C278.118 711.483 278.328 713.714 278.242 714.932C279.093 702.91 290.035 696.379 298.927 690.152C307.262 684.315 313.573 676.928 313.68 666.304C313.733 661.086 313.359 656.139 311.178 651.822C313.525 648.829 315.246 645.349 316.116 641.768C317.636 635.506 316.813 627.466 314.502 621.646C312.296 616.092 308.856 611.327 307.431 605.438C306.099 599.938 313.606 595.797 317.99 596.451C317.777 596.42 318.282 591.3 317.99 591.257Z" fill="#F58B35"/>
<path fill-rule="evenodd" clip-rule="evenodd" d="M80.4701 458.709C84.2892 454.281 90.1794 455.526 92.9285 461.216C94.5753 464.625 93.7064 468.038 91.8555 471.122C85.2611 469.409 79.4386 465.282 80.4701 458.709ZM131.938 449.257C124.201 458.703 116.053 468.197 103.805 471.466C100.68 472.3 96.3616 472.223 92.2809 471.233C96.3474 463.008 98.4641 452.599 88.2365 451.038C84.8064 450.514 82.705 453.159 81.2339 456.006C81.2541 455.955 81.2683 455.907 81.2895 455.856C81.24 455.968 81.1895 456.08 81.14 456.193C80.5459 457.366 80.0529 458.561 79.6194 459.576C79.5719 459.688 79.5396 459.797 79.4952 459.908C79.4396 460.032 79.386 460.157 79.3305 460.28C79.3487 460.249 79.3699 460.224 79.3881 460.194C77.1148 466.291 80.1357 471.425 85.6935 474.692C86.4886 475.16 87.3131 475.539 88.1557 475.859C87.0322 477.05 85.8814 478.143 84.8469 479.091C74.7426 488.344 60.0554 491.923 46.7918 489.033C46.419 488.952 44.9995 493.851 44.7025 493.787C60.2444 497.174 76.354 491.578 86.8322 479.694C87.6131 478.809 88.4962 477.632 89.3943 476.272C95.7796 478.15 103.119 476.334 108.887 473.547C117.536 469.364 123.901 461.272 129.849 454.012C130.912 452.714 130.889 450.537 131.938 449.257Z" fill="#F58B35"/>
<path fill-rule="evenodd" clip-rule="evenodd" d="M155.141 221.266C153.941 225.401 150.517 227.431 146.156 228.612C141.89 229.767 136.625 229.737 134.746 225.569C136.539 219.487 141.35 215.091 147.193 212.016C151.081 213.991 154.132 216.879 155.141 221.266ZM205.269 217.777C203.309 208.549 194.023 204.524 185.766 202.32C175.608 199.61 164.72 200.464 154.813 203.71C152.397 204.502 149.95 205.514 147.614 206.752C140.762 202.863 130.889 202.542 123.922 201.374C114.224 199.747 104.502 196.584 98.3491 188.463C99.1675 189.544 97.5014 192.537 98.3491 193.656C105.776 203.458 117.918 205.664 129.372 207.443C133.231 208.042 137.992 208.725 142.391 210.103C138.746 212.958 135.83 216.592 134.473 221.118C133.342 224.895 133.646 231.148 136.965 233.501C140.159 235.766 145.75 234.059 149.009 232.923C152.714 231.632 155.379 228.414 155.523 224.453C155.582 222.808 155.612 221.216 155.515 219.676V219.351C155.511 219.392 155.503 219.427 155.498 219.467C155.267 216.223 154.447 213.205 152.089 210.385C151.966 210.237 151.823 210.111 151.693 209.968C157.338 207.756 163.416 206.55 168.448 206.084C180.778 204.939 202.149 208.285 205.269 222.97C204.92 221.324 205.623 219.44 205.269 217.777Z" fill="#F58B35"/>
<path fill-rule="evenodd" clip-rule="evenodd" d="M12.6212 174.342C9.45789 174.342 6.81891 176.981 6.81891 180.143C6.81891 183.307 9.45789 185.946 12.6212 185.946C15.7836 185.946 18.4225 183.307 18.4225 180.143C18.4225 176.981 15.7836 174.342 12.6212 174.342Z" fill="#F58B35"/>
<path fill-rule="evenodd" clip-rule="evenodd" d="M311.749 112.666C309.152 111.143 305.759 111.587 303.632 113.712C302.383 114.963 301.67 116.68 301.67 118.45C301.67 119.61 301.972 120.688 302.51 121.657C302.622 122.133 302.796 122.591 303.049 123.029C303.49 123.773 304.083 124.366 304.828 124.808C306.214 125.619 307.884 125.673 309.33 125.05C311.312 124.774 313.123 123.588 314.153 121.829C315.999 118.678 314.895 114.508 311.749 112.666Z" fill="#F58B35"/>
<path fill-rule="evenodd" clip-rule="evenodd" d="M47.4755 58.6505C44.877 57.1279 41.4843 57.5715 39.3585 59.6982C38.1078 60.948 37.3955 62.6655 37.3955 64.4346C37.3955 65.5945 37.6986 66.6725 38.2361 67.6424C38.3472 68.1183 38.522 68.576 38.7756 69.0144C39.2151 69.759 39.8081 70.3521 40.5528 70.7926C41.9389 71.6039 43.609 71.6575 45.0558 71.0351C47.037 70.7593 48.8486 69.5731 49.8781 67.8142C51.725 64.663 50.6207 60.4923 47.4755 58.6505Z" fill="#F58B35"/>
<path fill-rule="evenodd" clip-rule="evenodd" d="M150.523 72.655C146.851 72.655 146.851 78.3513 150.523 78.3513C154.198 78.3513 154.198 72.655 150.523 72.655Z" fill="#F58B35"/>
<path fill-rule="evenodd" clip-rule="evenodd" d="M312.523 276.646C304.905 276.646 304.905 288.459 312.523 288.459C320.142 288.459 320.142 276.646 312.523 276.646Z" fill="#F58B35"/>
<path fill-rule="evenodd" clip-rule="evenodd" d="M209.592 302.546C208.997 300.281 206.832 298.675 204.506 298.675C202.181 298.675 200.015 300.281 199.421 302.546C198.896 304.542 199.344 306.404 200.739 307.923C200.938 308.139 201.137 308.357 201.335 308.573C202.938 310.317 206.074 310.317 207.676 308.573C207.842 308.392 208.008 308.211 208.173 308.032C209.613 306.464 210.138 304.628 209.592 302.546Z" fill="#F58B35"/>
<path fill-rule="evenodd" clip-rule="evenodd" d="M251.244 351.776C246.755 351.776 246.755 358.738 251.244 358.738C255.733 358.738 255.733 351.776 251.244 351.776Z" fill="#F58B35"/>
<path fill-rule="evenodd" clip-rule="evenodd" d="M136.885 426.896C132.396 426.896 132.396 433.86 136.885 433.86C141.375 433.86 141.375 426.896 136.885 426.896Z" fill="#F58B35"/>
<path fill-rule="evenodd" clip-rule="evenodd" d="M200.352 510.475C198.339 510.475 196.66 512.155 196.66 514.167C196.66 516.18 198.339 517.86 200.352 517.86C202.363 517.86 204.043 516.18 204.043 514.167C204.043 512.155 202.363 510.475 200.352 510.475Z" fill="#F58B35"/>
<path fill-rule="evenodd" clip-rule="evenodd" d="M352.721 466.535C351.916 466.069 350.753 465.684 349.808 465.759C348.896 465.762 348.046 465.992 347.258 466.45C347.086 466.551 346.951 466.69 346.795 466.808C346.688 466.884 346.584 466.963 346.481 467.05C346.377 467.141 346.265 467.225 346.17 467.325C345.113 468.346 344.364 469.831 344.491 471.257C344.493 471.288 344.496 471.317 344.498 471.347C344.501 472.329 344.748 473.246 345.242 474.094C345.955 475.312 347.134 476.222 348.494 476.596C350.802 477.23 353.468 476.223 354.641 474.094C354.656 474.069 354.67 474.044 354.683 474.018C356.117 471.417 355.348 468.055 352.721 466.535Z" fill="#F58B35"/>
<path fill-rule="evenodd" clip-rule="evenodd" d="M39.4935 307.196C38.6883 306.73 37.5254 306.345 36.5808 306.421C35.6684 306.423 34.8177 306.655 34.0297 307.111C33.8579 307.213 33.7236 307.351 33.568 307.469C33.4609 307.545 33.3568 307.626 33.2538 307.711C33.1497 307.803 33.0365 307.886 32.9416 307.986C31.8858 309.007 31.1371 310.493 31.2634 311.919C31.2654 311.949 31.2674 311.978 31.2705 312.009C31.2735 312.99 31.521 313.907 32.0141 314.755C32.7274 315.973 33.9064 316.883 35.2663 317.257C37.5749 317.892 40.2402 316.884 41.4132 314.755C41.4273 314.73 41.4415 314.706 41.4546 314.68C42.8882 312.079 42.1204 308.716 39.4935 307.196Z" fill="#F58B35"/>
<path fill-rule="evenodd" clip-rule="evenodd" d="M44.04 611.795C43.2348 611.33 42.0719 610.945 41.1262 611.019C40.2149 611.022 39.3642 611.253 38.5761 611.71C38.4044 611.811 38.27 611.949 38.1144 612.067C38.0063 612.144 37.9033 612.224 37.7992 612.311C37.6961 612.401 37.583 612.485 37.488 612.584C36.4322 613.606 35.6826 615.091 35.8099 616.518C35.8109 616.547 35.8139 616.577 35.8169 616.608C35.82 617.59 36.0675 618.506 36.5605 619.355C37.2728 620.572 38.4529 621.482 39.8128 621.856C42.1204 622.491 44.7866 621.483 45.9596 619.355L46.001 619.278C47.4347 616.677 46.6668 613.315 44.04 611.795Z" fill="#F58B35"/>
<path fill-rule="evenodd" clip-rule="evenodd" d="M273.207 616.009C272.619 615.421 271.811 615.087 270.978 615.087C270.146 615.087 269.338 615.421 268.749 616.009C268.215 616.544 267.739 617.454 267.827 618.238C267.857 618.515 267.888 618.793 267.92 619.069C268.013 619.912 268.193 620.61 268.815 621.232C269.387 621.804 270.17 622.128 270.978 622.128C271.786 622.128 272.57 621.804 273.142 621.232C273.764 620.61 273.943 619.912 274.037 619.069C274.069 618.793 274.099 618.515 274.13 618.238C274.217 617.454 273.741 616.544 273.207 616.009Z" fill="#F58B35"/>
<path fill-rule="evenodd" clip-rule="evenodd" d="M155.136 653.533C154.547 652.945 153.739 652.61 152.907 652.61C152.074 652.61 151.267 652.945 150.678 653.533C150.144 654.067 149.668 654.977 149.756 655.761C149.786 656.038 149.816 656.316 149.849 656.593C149.942 657.435 150.121 658.134 150.744 658.756C151.315 659.327 152.099 659.652 152.907 659.652C153.715 659.652 154.499 659.327 155.07 658.756C155.692 658.134 155.872 657.435 155.965 656.593C155.997 656.316 156.028 656.038 156.058 655.761C156.146 654.977 155.67 654.067 155.136 653.533Z" fill="#F58B35"/>
<path fill-rule="evenodd" clip-rule="evenodd" d="M373.592 186.946C373.367 186.529 373.143 186.112 372.919 185.695C372.123 184.22 370.007 184.024 368.859 185.171C367.712 186.319 367.907 188.436 369.382 189.231C369.8 189.455 370.217 189.679 370.634 189.905C372.561 190.943 374.631 188.873 373.592 186.946Z" fill="#F58B35"/>
<path fill-rule="evenodd" clip-rule="evenodd" d="M347.681 407.535C347.071 406.493 345.93 405.837 344.721 405.837C343.816 405.837 342.938 406.202 342.297 406.841C341.395 407.742 341.152 408.962 341.415 410.177L341.67 411.353C341.898 412.41 342.559 413.024 343.39 413.619C344.085 414.12 345.356 414.12 346.053 413.619C346.789 413.092 347.526 412.499 347.731 411.549L348.027 410.177C348.226 409.258 348.165 408.362 347.681 407.535Z" fill="#F58B35"/>
<path fill-rule="evenodd" clip-rule="evenodd" d="M125.954 159.496C125.552 159.32 125.217 159.145 124.761 159.145C124.459 159.145 124.127 159.237 123.828 159.299C121.958 159.678 121.958 162.682 123.828 163.061C124.127 163.123 124.459 163.215 124.761 163.215C125.217 163.215 125.552 163.04 125.954 162.864C127.232 162.306 127.232 160.055 125.954 159.496Z" fill="#F58B35"/>
<mask id="mask0_0_1954" style="mask-type:luminance" maskUnits="userSpaceOnUse" x="0" y="483" width="5" height="5">
<path fill-rule="evenodd" clip-rule="evenodd" d="M0 483.795V487.864H4.48682V483.795H0L0 483.795Z" fill="white"/>
</mask>
<g mask="url(#mask0_0_1954)">
<path fill-rule="evenodd" clip-rule="evenodd" d="M3.52826 484.144C3.12615 483.969 2.79173 483.795 2.33607 483.795C2.03398 483.795 1.70158 483.886 1.40253 483.947C-0.46759 484.326 -0.46759 487.331 1.40253 487.71C1.70158 487.772 2.03398 487.864 2.33607 487.864C2.79173 487.864 3.12615 487.689 3.52826 487.513C4.80632 486.954 4.80632 484.704 3.52826 484.144Z" fill="#F58B35"/>
</g>
</g>
<defs>
<clipPath id="clip0_0_1954">
<rect width="1169.96" height="778.963" fill="white" transform="translate(0 -56)"/>
</clipPath>
</defs>
</svg>
